<?xml version="1.0" standalone="no"?>
<!DOCTYPE svg PUBLIC "-//W3C//DTD SVG 20010904//EN"
 "http://www.w3.org/TR/2001/REC-SVG-20010904/DTD/svg10.dtd">
<svg version="1.0" xmlns="http://www.w3.org/2000/svg"
 width="2550.000000pt" height="3300.000000pt" viewBox="0 0 2550.000000 3300.000000"
 preserveAspectRatio="xMidYMid meet">
<metadata>
Created by potrace 1.16, written by Peter Selinger 2001-2019
</metadata>
<g transform="translate(0.000000,3300.000000) scale(0.100000,-0.100000)"
fill="#000000" stroke="none">
<path d="M5125 32968 c-28 -169 -34 -652 -10 -886 81 -784 378 -1499 879
-2117 122 -150 425 -450 571 -566 641 -509 1343 -791 2145 -864 211 -19 16715
-1255 16759 -1255 l31 0 0 2854 0 2853 -82 6 c-46 4 -4629 7 -10185 7 l-10102
0 -6 -32z m2685 -468 c279 -24 630 -88 686 -124 16 -11 30 -38 44 -87 36 -119
101 -171 257 -203 44 -10 73 -22 84 -35 23 -28 33 -135 32 -356 0 -214 -22
-394 -73 -610 -12 -49 -23 -101 -25 -115 -6 -42 -71 -225 -108 -302 -150 -310
-397 -593 -709 -814 -113 -80 -299 -188 -383 -223 l-74 -31 -53 20 c-82 30
-288 151 -415 242 -590 424 -871 961 -908 1743 -8 146 9 406 27 435 15 24 40
35 114 50 135 28 216 99 239 210 16 80 29 86 290 139 130 26 338 54 485 64
107 8 384 6 490 -3z m2498 -1517 l3 -63 -241 0 -241 0 -24 -25 c-19 -18 -25
-35 -25 -69 l0 -46 263 -2 262 -3 3 -52 3 -53 -268 -2 -268 -3 0 -125 0 -125
-68 -3 -68 -3 3 253 c3 283 9 308 74 349 51 31 108 37 359 35 l230 -1 3 -62z
m1212 42 c21 -12 45 -39 58 -65 20 -40 23 -57 20 -142 -4 -124 -15 -141 -126
-195 -2 0 31 -43 72 -94 42 -51 76 -99 76 -106 0 -9 -20 -13 -74 -13 l-74 0
-73 100 -74 99 -147 1 -147 0 -3 -97 -3 -98 -65 0 -65 0 -3 305 c-1 168 0 311
3 318 4 11 61 13 297 10 273 -3 295 -4 328 -23z m1155 -6 c24 -25 335 -580
335 -599 0 -6 -28 -10 -70 -10 l-70 0 -30 47 c-16 26 -32 55 -36 65 -5 17 -19
18 -222 16 l-217 -3 -33 -62 -33 -63 -75 0 c-40 0 -74 4 -74 9 0 5 73 143 162
307 182 332 177 327 281 321 45 -3 63 -9 82 -28z m1115 18 c26 -13 57 -52 267
-329 70 -93 131 -164 135 -160 4 4 9 118 10 252 l3 245 65 0 65 0 3 -293 2
-293 -24 -24 c-22 -22 -33 -25 -104 -25 -101 0 -104 3 -240 184 -143 192 -242
316 -253 316 -5 0 -10 -111 -11 -247 l-3 -248 -65 0 -65 0 -3 293 -2 293 24
24 c22 22 34 25 98 25 40 0 84 -6 98 -13z m1829 -1 c7 -8 11 -36 9 -63 l-3
-48 -248 -5 -249 -5 -25 -29 c-24 -28 -24 -32 -21 -162 4 -191 -16 -178 293
-182 l245 -3 6 -23 c3 -13 4 -40 2 -62 l-3 -39 -240 -3 c-265 -3 -328 5 -377
46 -58 49 -68 88 -67 267 0 203 15 252 92 292 50 25 107 31 343 32 189 1 234
-2 243 -13z m1261 -12 c93 -43 109 -85 110 -293 0 -179 -9 -219 -61 -265 -51
-47 -105 -56 -334 -56 -235 0 -286 9 -336 59 -49 49 -59 91 -59 256 1 196 15
246 88 288 51 30 109 36 332 34 194 -2 219 -5 260 -23z m-4063 -840 c78 -51
32 -184 -63 -184 -75 0 -123 54 -110 123 14 75 104 107 173 61z m-1947 -84
c22 -51 37 -96 35 -98 -9 -10 -34 8 -47 34 -8 18 -22 28 -38 30 -35 3 -60 -5
-60 -20 0 -20 -26 -50 -38 -43 -9 6 0 34 59 175 6 16 16 22 30 20 16 -2 30
-26 59 -98z m641 90 c24 -13 26 -65 3 -78 -15 -8 -15 -12 -1 -33 8 -13 18 -37
21 -52 6 -24 4 -28 -10 -25 -10 2 -22 17 -27 33 -14 42 -26 55 -53 55 -22 0
-24 -4 -24 -45 0 -33 -4 -45 -15 -45 -12 0 -15 18 -15 100 l0 100 51 0 c28 0
59 -5 70 -10z m648 -22 c14 -25 14 -29 -7 -50 -19 -21 -20 -26 -8 -38 8 -8 17
-30 21 -47 10 -49 -16 -42 -40 10 -16 33 -25 42 -45 42 -22 0 -25 -5 -28 -42
-2 -29 -8 -43 -18 -43 -11 0 -14 20 -14 100 l0 101 62 -3 c56 -3 64 -6 77 -30z
m2575 16 c23 -22 20 -61 -5 -74 -18 -10 -19 -13 -6 -23 11 -10 37 -67 37 -83
0 -2 -7 -4 -16 -4 -8 0 -22 17 -31 38 -17 40 -29 52 -55 52 -15 0 -18 -9 -18
-46 0 -38 -3 -45 -17 -42 -15 3 -18 17 -21 101 l-3 97 60 0 c41 0 65 -5 75
-16z m1178 -83 c21 -52 36 -96 33 -99 -10 -10 -36 9 -45 33 -8 21 -16 25 -49
25 -35 0 -43 -4 -56 -30 -15 -29 -26 -36 -37 -24 -3 3 9 40 26 82 18 42 36 85
39 95 5 12 15 17 29 15 17 -2 30 -23 60 -97z"/>
<path d="M7310 32340 c-155 -12 -383 -44 -514 -73 l-98 -22 -15 -44 c-41 -120
-132 -204 -275 -251 -37 -12 -70 -25 -73 -30 -12 -20 -5 -411 10 -530 69 -559
275 -944 690 -1295 103 -86 290 -211 411 -272 l94 -48 93 47 c601 306 1006
849 1092 1460 21 156 35 431 27 543 l-7 99 -72 27 c-161 59 -237 134 -286 280
-5 16 -33 24 -227 60 -244 45 -606 66 -850 49z m-520 -229 c0 -131 -98 -248
-249 -297 l-54 -17 6 -186 c13 -367 68 -624 191 -885 123 -263 339 -509 601
-686 41 -28 75 -55 75 -61 0 -14 -83 34 -184 106 -399 284 -639 652 -744 1140
-35 159 -62 399 -62 543 0 94 1 99 28 124 15 15 63 38 107 53 143 47 223 107
254 188 16 42 31 32 31 -22z m604 24 c23 -11 79 -65 149 -144 212 -239 240
-274 299 -386 25 -47 38 -63 38 -47 0 15 6 22 19 22 13 0 18 5 14 18 -2 10 10
47 26 82 17 36 31 71 31 78 0 7 5 22 11 33 17 33 36 6 49 -69 15 -83 10 -234
-8 -240 -7 -2 -9 -8 -6 -13 3 -6 7 -22 9 -35 1 -14 10 -33 18 -42 15 -14 16
-13 11 20 -8 48 18 59 56 23 25 -24 56 -37 32 -13 -23 23 -11 49 52 108 69 66
116 144 137 228 27 109 62 34 63 -138 1 -116 -18 -221 -43 -244 -9 -9 -35 -20
-57 -25 l-39 -9 39 -1 c32 -1 38 -4 33 -20 -3 -14 4 -23 29 -35 39 -18 74 -69
74 -108 0 -36 -69 -229 -106 -298 -42 -78 -79 -100 -171 -100 -65 0 -77 3 -98
25 -14 13 -25 32 -25 43 0 19 -18 42 -33 42 -6 0 -5 -5 0 -12 17 -21 23 -74
10 -87 -17 -17 -338 -15 -410 4 -86 22 -168 68 -236 131 -34 31 -61 54 -61 51
0 -5 79 -194 105 -252 8 -17 28 -65 44 -107 l31 -76 0 -243 c0 -212 -2 -245
-17 -261 -22 -25 -35 -23 -95 14 -446 272 -738 700 -829 1218 -13 73 -23 182
-26 297 -7 210 -3 221 68 242 125 37 210 106 256 208 14 29 35 60 46 68 20 13
219 57 307 68 67 9 165 0 204 -18z m317 -54 l23 -19 -28 -70 c-41 -106 -45
-107 -119 -27 -34 37 -63 71 -65 75 -4 11 48 42 83 51 52 12 82 10 106 -10z"/>
<path d="M7044 31975 c-25 -25 -26 -30 -20 -88 7 -63 23 -98 60 -129 47 -41
53 -38 29 11 -29 58 -41 154 -23 176 14 17 66 20 103 6 14 -5 42 -25 63 -43
25 -22 34 -26 27 -13 -27 50 -89 86 -170 100 -37 6 -45 3 -69 -20z"/>
<path d="M11034 30915 c-3 -6 -4 -52 -2 -101 l3 -89 193 0 c192 0 194 0 213
24 27 33 27 123 -1 151 -18 18 -34 20 -167 21 -82 0 -168 2 -191 3 -27 2 -45
-1 -48 -9z"/>
<path d="M12503 30788 c-39 -73 -70 -134 -69 -135 4 -4 287 -5 291 -1 6 5
-120 237 -139 256 -10 10 -26 -12 -83 -120z"/>
<path d="M16369 30890 l-31 -30 4 -135 c4 -190 -10 -180 253 -180 265 0 250
-11 250 185 0 195 14 184 -245 188 l-200 3 -31 -31z"/>
<path d="M12700 30160 c-43 -43 -8 -140 50 -140 33 0 70 44 70 83 0 65 -76
101 -120 57z"/>
</g>
</svg>
