<svg height="512" viewBox="0 0 60 60" width="512" xmlns="http://www.w3.org/2000/svg"><g id="008---Money-Increase" fill="none"><g id="Icons" transform="translate(1 1)"><g fill="#c81e1e"><rect id="Rectangle-path" height="7" rx=".5" width="10" x="8" y="17"/><rect id="Rectangle-path" height="11" rx=".5" width="10" x="24" y="13"/><path id="Shape" d="m51.89 9h-1.39c-.2761424 0-.5.22385763-.5.5v14c0 .2761424-.2238576.5-.5.5h-9c-.2761424 0-.5-.2238576-.5-.5v-14c0-.27614237-.2238576-.5-.5-.5h-1.39c-.195349-.00219008-.3715303-.11795438-.4510734-.29638897s-.0478773-.38685364.0810734-.53361103c6.75-7.52 5.36-6 6.89-7.75.0947622-.10425712.229112-.16369657.37-.16369657s.2752378.05943945.37.16369657l6.89 7.75c.1289507.14675739.1606165.35517644.0810734.53361103s-.2557244.29419889-.4510734.29638897z"/></g><rect id="Rectangle-path" fill="#f44335" height="7" rx=".5" width="7" x="8" y="17"/><rect id="Rectangle-path" fill="#f44335" height="11" rx=".5" width="7" x="24" y="13"/><path id="Shape" d="m48.89 9h-1.39c-.2761424 0-.5.22385763-.5.5v14c0 .2761424-.2238576.5-.5.5h-6c-.2761424 0-.5-.2238576-.5-.5v-14c0-.27614237-.2238576-.5-.5-.5h-1.39c-.195349-.00219008-.3715303-.11795438-.4510734-.29638897s-.0478773-.38685364.0810734-.53361103l5.76-6.48 5.76 6.48c.1289507.14675739.1606165.35517644.0810734.53361103s-.2557244.29419889-.4510734.29638897z" fill="#f44335"/><path id="Shape" d="m58 30v26c0 1.1045695-.8954305 2-2 2h-54c-1.1045695 0-2-.8954305-2-2v-26c0-1.1045695.8954305-2 2-2h54c1.1045695 0 2 .8954305 2 2z" fill="#549414"/><path id="Shape" d="m55 30v26c0 1.1045695-.8954305 2-2 2h-51c-1.1045695 0-2-.8954305-2-2v-26c0-1.1045695.8954305-2 2-2h51c1.1045695 0 2 .8954305 2 2z" fill="#60a917"/><path id="Shape" d="m54 37v12c-2.7614237 0-5 2.2385763-5 5h-40c0-2.7614237-2.23857625-5-5-5v-12c2.76142375 0 5-2.2385763 5-5h40c0 2.7614237 2.2385763 5 5 5z" fill="#008a00"/><path id="Shape" d="m40 43c.0038746 5.881105-4.6189061 10.7249465-10.4937816 10.9955929s-10.9234272-4.1276519-11.4602882-9.984203c-.536861-5.8565512 3.6279-11.0994196 9.4540698-11.9013899 3.1480525-.4333284 6.329689.5159111 8.7256859 2.6033036s3.7722205 5.1089607 3.7743141 8.2866964z" fill="#90ac00"/><ellipse id="Oval" cx="27.5" cy="43" fill="#a4c400" rx="9.5" ry="10.89"/></g><g id="Layer_10" fill="#000"><path id="Shape" d="m57 28h-54c-1.65685425 0-3 1.3431458-3 3v26c0 1.6568542 1.34314575 3 3 3h54c1.6568542 0 3-1.3431458 3-3v-26c0-1.6568542-1.3431458-3-3-3zm1 29c0 .5522847-.4477153 1-1 1h-54c-.55228475 0-1-.4477153-1-1v-26c0-.5522847.44771525-1 1-1h54c.5522847 0 1 .4477153 1 1z"/><path id="Shape" d="m55 37c-2.209139 0-4-1.790861-4-4 0-.5522847-.4477153-1-1-1h-40c-.55228475 0-1 .4477153-1 1 0 2.209139-1.790861 4-4 4-.55228475 0-1 .4477153-1 1v12c0 .5522847.44771525 1 1 1 2.209139 0 4 1.790861 4 4 0 .5522847.44771525 1 1 1h40c.5522847 0 1-.4477153 1-1 0-2.209139 1.790861-4 4-4 .5522847 0 1-.4477153 1-1v-12c0-.5522847-.4477153-1-1-1zm-44.08 17c-.4245846-2.520571-2.399429-4.4954154-4.92-4.92v-10.16c2.520571-.4245846 4.4954154-2.399429 4.92-4.92h12.46c-3.3517423 2.2232943-5.3667504 5.9779093-5.3667504 10s2.0150081 7.7767057 5.3667504 10zm19.08-20c5.5228475 0 10 4.4771525 10 10s-4.4771525 10-10 10-10-4.4771525-10-10 4.4771525-10 10-10zm24 15.08c-2.520571.4245846-4.4954154 2.399429-4.92 4.92h-12.46c3.3517423-2.2232943 5.3667504-5.9779093 5.3667504-10s-2.0150081-7.7767057-5.3667504-10h12.46c.4245846 2.520571 2.399429 4.4954154 4.92 4.92z"/><path id="Shape" d="m30 49c-1.1045695 0-2-.8954305-2-2 0-.5522847-.4477153-1-1-1s-1 .4477153-1 1c.0059072 1.819157 1.2385971 3.4052179 3 3.86v1.14c0 .5522847.4477153 1 1 1s1-.4477153 1-1v-1.14c1.9260077-.5228481 3.1719503-2.3853678 2.9200729-4.3651238-.2518773-1.979756-1.9245019-3.4709567-3.9200729-3.4948762-1.1045695 0-2-.8954305-2-2s.8954305-2 2-2 2 .8954305 2 2c0 .5522847.4477153 1 1 1s1-.4477153 1-1c-.0059072-1.819157-1.2385971-3.4052179-3-3.86v-1.14c0-.5522847-.4477153-1-1-1s-1 .4477153-1 1v1.14c-1.9260077.5228481-3.1719503 2.3853678-2.9200729 4.3651238.2518773 1.979756 1.9245019 3.4709567 3.9200729 3.4948762 1.1045695 0 2 .8954305 2 2s-.8954305 2-2 2z"/><path id="Shape" d="m9.5 26h9c.8284271 0 1.5-.6715729 1.5-1.5v-6c0-.8284271-.6715729-1.5-1.5-1.5h-9c-.82842712 0-1.5.6715729-1.5 1.5v6c0 .8284271.67157288 1.5 1.5 1.5zm.5-7h8v5h-8z"/><path id="Shape" d="m25.5 26h9c.8284271 0 1.5-.6715729 1.5-1.5v-10c0-.8284271-.6715729-1.5-1.5-1.5h-9c-.8284271 0-1.5.6715729-1.5 1.5v10c0 .8284271.6715729 1.5 1.5 1.5zm.5-11h8v9h-8z"/><path id="Shape" d="m39.11 11h.89v13.5c0 .8284271.6715729 1.5 1.5 1.5h9c.8284271 0 1.5-.6715729 1.5-1.5v-13.5h.89c.5859889-.0116126 1.1123244-.3612698 1.350165-.8969467.2378406-.53567696.1442169-1.16059603-.240165-1.6030533l-6.88-7.74c-.2924039-.30564078-.697015-.47850572-1.12-.47850572s-.8275961.17286494-1.12.47850572l-6.88 7.74c-.3843819.44245727-.4780056 1.06737634-.240165 1.6030533.2378406.5356769.7641761.8853341 1.350165.8969467zm6.89-8.5 5.77 6.5h-.27c-.8284271 0-1.5.67157288-1.5 1.5v13.5h-8v-13.5c0-.82842712-.6715729-1.5-1.5-1.5h-.27z"/></g></g></svg>