<?xml version="1.0" encoding="utf-8"?>
<!-- Generator: Adobe Illustrator 24.3.0, SVG Export Plug-In . SVG Version: 6.00 Build 0)  -->
<svg version="1.1" id="Capa_1" xmlns="http://www.w3.org/2000/svg" xmlns:xlink="http://www.w3.org/1999/xlink" x="0px" y="0px"
	 viewBox="0 0 283.46 283.46" style="enable-background:new 0 0 283.46 283.46;" xml:space="preserve">
<style type="text/css">
	.st0{fill:#41914D;}
	.st1{fill:#323232;}
</style>
<g>
	<path class="st0" d="M52.89,198.31c0.41,0,0.62,0.2,0.62,0.59v2.55c0,0.39-0.21,0.59-0.62,0.59H41.24c-0.7,0-1.28,0.06-1.73,0.17
		c-0.46,0.12-0.82,0.31-1.09,0.59c-0.27,0.28-0.46,0.65-0.58,1.13c-0.12,0.47-0.17,1.06-0.17,1.76v0.54h15.09
		c0.39,0,0.59,0.2,0.59,0.59v2.12c0,0.39-0.2,0.59-0.59,0.59H37.67v6.98c0,0.39-0.2,0.59-0.59,0.59h-2.9c-0.41,0-0.62-0.2-0.62-0.59
		V205.4c0-1.29,0.14-2.38,0.42-3.27c0.28-0.89,0.72-1.62,1.32-2.19c0.6-0.56,1.37-0.98,2.32-1.23c0.95-0.26,2.1-0.39,3.46-0.39
		H52.89z"/>
	<path class="st0" d="M85.77,198.31c2.06,0,3.53,0.47,4.43,1.4c0.89,0.93,1.34,2.31,1.34,4.13v1.53c0,1.54-0.31,2.76-0.94,3.65
		c-0.63,0.89-1.65,1.47-3.06,1.72l4.59,5.69c0.09,0.09,0.12,0.22,0.08,0.4c-0.04,0.18-0.18,0.27-0.43,0.27h-3.46
		c-0.23,0-0.39-0.03-0.48-0.08c-0.09-0.05-0.18-0.14-0.27-0.27l-4.24-5.58h-8.67v5.34c0,0.39-0.2,0.59-0.59,0.59h-2.9
		c-0.41,0-0.62-0.2-0.62-0.59v-17.39c0-0.54,0.27-0.81,0.81-0.81H85.77z M74.66,207.89h10.28c0.91,0,1.56-0.2,1.93-0.59
		c0.38-0.39,0.56-0.99,0.56-1.8v-1.13c0-0.8-0.19-1.4-0.56-1.8c-0.38-0.39-1.02-0.59-1.93-0.59h-9.93c-0.23,0-0.35,0.11-0.35,0.32
		V207.89z"/>
	<path class="st0" d="M121.15,198.31c0.68,0,1.25,0.14,1.72,0.42c0.46,0.28,0.92,0.82,1.37,1.62l8.89,16.13
		c0.09,0.18,0.11,0.33,0.07,0.44c-0.05,0.12-0.17,0.17-0.39,0.17h-3.41c-0.3,0-0.51-0.12-0.62-0.35l-1.91-3.46h-12.62l-1.85,3.46
		c-0.13,0.23-0.33,0.35-0.62,0.35h-3.49c-0.23,0-0.37-0.06-0.42-0.17c-0.05-0.12-0.02-0.26,0.07-0.44l8.8-16.13
		c0.45-0.8,0.89-1.35,1.32-1.62c0.43-0.28,0.93-0.42,1.5-0.42H121.15z M115.94,210.18h9.23l-4.27-7.86
		c-0.07-0.13-0.17-0.19-0.3-0.19h-0.16c-0.13,0-0.22,0.06-0.29,0.19L115.94,210.18z"/>
	<path class="st0" d="M154.57,198.31c0.43,0,0.79,0.02,1.07,0.05c0.29,0.04,0.54,0.11,0.75,0.23s0.42,0.28,0.62,0.48
		c0.2,0.21,0.42,0.48,0.67,0.82l9.99,13.1c0.07,0.13,0.19,0.19,0.35,0.19h0.24c0.14,0,0.21-0.09,0.21-0.27V198.9
		c0-0.39,0.2-0.59,0.59-0.59h2.82c0.39,0,0.59,0.2,0.59,0.59v15.41c0,1.09-0.2,1.83-0.59,2.22c-0.39,0.38-1,0.58-1.82,0.58h-2.31
		c-0.41,0-0.76-0.02-1.03-0.05c-0.28-0.04-0.52-0.11-0.74-0.21c-0.21-0.11-0.43-0.26-0.63-0.47c-0.21-0.2-0.44-0.49-0.71-0.85
		l-10.01-13.1c-0.11-0.13-0.22-0.19-0.35-0.19h-0.24c-0.14,0-0.21,0.09-0.21,0.27v14.01c0,0.39-0.2,0.59-0.59,0.59h-2.82
		c-0.41,0-0.62-0.2-0.62-0.59V201.1c0-1.09,0.2-1.83,0.59-2.21c0.39-0.39,1-0.58,1.82-0.58H154.57z"/>
	<path class="st0" d="M209.84,198.31c0.39,0,0.59,0.2,0.59,0.59v2.63c0,0.41-0.2,0.62-0.59,0.62h-11.94c-0.7,0-1.28,0.06-1.73,0.17
		s-0.82,0.31-1.09,0.59c-0.27,0.28-0.46,0.65-0.58,1.11c-0.12,0.46-0.17,1.06-0.17,1.77v3.81c0,0.72,0.06,1.31,0.17,1.79
		c0.12,0.47,0.31,0.85,0.58,1.13c0.27,0.28,0.63,0.47,1.09,0.59c0.46,0.12,1.03,0.17,1.73,0.17h11.94c0.39,0,0.59,0.2,0.59,0.59
		v2.63c0,0.39-0.2,0.59-0.59,0.59h-12.11c-1.36,0-2.51-0.13-3.46-0.38c-0.95-0.25-1.72-0.66-2.32-1.22c-0.6-0.56-1.04-1.3-1.32-2.2
		c-0.28-0.9-0.42-2-0.42-3.29v-4.62c0-1.29,0.14-2.38,0.42-3.27c0.28-0.89,0.72-1.62,1.32-2.19c0.6-0.56,1.37-0.98,2.32-1.23
		c0.95-0.26,2.1-0.39,3.46-0.39H209.84z"/>
	<path class="st0" d="M243.28,198.31c1.36,0,2.52,0.13,3.48,0.39c0.96,0.26,1.73,0.67,2.33,1.23c0.6,0.56,1.03,1.29,1.3,2.19
		c0.27,0.9,0.4,1.99,0.4,3.27v4.62c0,1.29-0.13,2.38-0.4,3.29c-0.27,0.9-0.7,1.64-1.3,2.2c-0.6,0.56-1.38,0.97-2.33,1.22
		c-0.96,0.25-2.12,0.38-3.48,0.38h-8.3c-1.36,0-2.51-0.13-3.46-0.38c-0.95-0.25-1.72-0.66-2.32-1.22c-0.6-0.56-1.04-1.3-1.32-2.2
		c-0.28-0.9-0.42-2-0.42-3.29v-4.62c0-1.29,0.14-2.38,0.42-3.27c0.28-0.89,0.72-1.62,1.32-2.19c0.6-0.56,1.37-0.98,2.32-1.23
		c0.95-0.26,2.1-0.39,3.46-0.39H243.28z M231.58,209.72c0,0.7,0.06,1.28,0.17,1.76c0.12,0.47,0.31,0.85,0.58,1.13
		c0.27,0.28,0.63,0.47,1.09,0.59c0.46,0.12,1.03,0.17,1.73,0.17h7.97c0.7,0,1.28-0.06,1.73-0.17c0.46-0.12,0.82-0.31,1.09-0.59
		c0.27-0.28,0.46-0.65,0.58-1.13c0.12-0.47,0.17-1.06,0.17-1.76v-4.03c0-0.7-0.06-1.28-0.17-1.76c-0.12-0.47-0.31-0.85-0.58-1.13
		c-0.27-0.28-0.63-0.47-1.09-0.59c-0.46-0.12-1.03-0.17-1.73-0.17h-7.97c-0.7,0-1.28,0.06-1.73,0.17c-0.46,0.12-0.82,0.31-1.09,0.59
		c-0.27,0.28-0.46,0.65-0.58,1.13c-0.12,0.47-0.17,1.06-0.17,1.76V209.72z"/>
	<path class="st1" d="M51.5,228.98c-0.33,0.14-0.98,0.28-1.81,0.28c-1.94,0-3.39-1.04-3.39-2.95c0-1.82,1.46-3.06,3.59-3.06
		c0.86,0,1.4,0.16,1.63,0.26l-0.21,0.61c-0.34-0.14-0.81-0.24-1.39-0.24c-1.61,0-2.68,0.87-2.68,2.4c0,1.43,0.97,2.34,2.64,2.34
		c0.54,0,1.09-0.1,1.45-0.24L51.5,228.98z"/>
	<path class="st1" d="M66.99,227.34l-0.71,1.83h-0.92l2.33-5.83h1.07l2.34,5.83h-0.95l-0.73-1.83H66.99z M69.24,226.75l-0.67-1.68
		c-0.15-0.38-0.25-0.73-0.36-1.06h-0.02c-0.1,0.35-0.21,0.7-0.35,1.06l-0.67,1.69H69.24z"/>
	<path class="st1" d="M85.34,223.42c0.45-0.08,1.09-0.12,1.7-0.12c0.95,0,1.56,0.15,1.99,0.48c0.35,0.26,0.54,0.66,0.54,1.11
		c0,0.77-0.57,1.28-1.29,1.49v0.03c0.53,0.16,0.85,0.57,1.01,1.18c0.22,0.81,0.39,1.37,0.53,1.6H88.9
		c-0.11-0.16-0.26-0.67-0.46-1.39c-0.2-0.8-0.57-1.11-1.37-1.13h-0.84v2.53h-0.89V223.42z M86.23,226.07h0.91
		c0.95,0,1.55-0.44,1.55-1.11c0-0.75-0.64-1.08-1.58-1.09c-0.43,0-0.73,0.03-0.88,0.07V226.07z"/>
	<path class="st1" d="M104.05,223.42c0.45-0.08,1.09-0.12,1.7-0.12c0.95,0,1.56,0.15,1.99,0.48c0.35,0.26,0.54,0.66,0.54,1.11
		c0,0.77-0.57,1.28-1.29,1.49v0.03c0.53,0.16,0.85,0.57,1.01,1.18c0.22,0.81,0.39,1.37,0.53,1.6h-0.92
		c-0.11-0.16-0.26-0.67-0.46-1.39c-0.2-0.8-0.57-1.11-1.37-1.13h-0.84v2.53h-0.89V223.42z M104.94,226.07h0.91
		c0.95,0,1.55-0.44,1.55-1.11c0-0.75-0.64-1.08-1.58-1.09c-0.43,0-0.73,0.03-0.88,0.07V226.07z"/>
	<path class="st1" d="M128.66,226.19c0,2.01-1.44,3.07-3.19,3.07c-1.81,0-3.09-1.19-3.09-2.96c0-1.85,1.36-3.06,3.19-3.06
		C127.45,223.24,128.66,224.46,128.66,226.19z M123.33,226.29c0,1.25,0.79,2.36,2.19,2.36c1.41,0,2.2-1.1,2.2-2.42
		c0-1.16-0.71-2.37-2.19-2.37C124.07,223.86,123.33,225.01,123.33,226.29z"/>
	<path class="st1" d="M147.84,228.98c-0.33,0.14-0.98,0.28-1.81,0.28c-1.94,0-3.39-1.04-3.39-2.95c0-1.82,1.46-3.06,3.59-3.06
		c0.86,0,1.4,0.16,1.63,0.26l-0.21,0.61c-0.34-0.14-0.81-0.24-1.39-0.24c-1.61,0-2.68,0.87-2.68,2.4c0,1.43,0.97,2.34,2.64,2.34
		c0.54,0,1.09-0.1,1.45-0.24L147.84,228.98z"/>
	<path class="st1" d="M165.73,226.44h-2.67v2.1h2.97v0.63h-3.86v-5.83h3.71v0.63h-2.82v1.84h2.67V226.44z"/>
	<path class="st1" d="M180.42,223.42c0.45-0.08,1.09-0.12,1.7-0.12c0.95,0,1.56,0.15,1.99,0.48c0.35,0.26,0.54,0.66,0.54,1.11
		c0,0.77-0.57,1.28-1.29,1.49v0.03c0.53,0.16,0.85,0.57,1.01,1.18c0.22,0.81,0.39,1.37,0.53,1.6h-0.92
		c-0.11-0.16-0.26-0.67-0.46-1.39c-0.2-0.8-0.57-1.11-1.37-1.13h-0.84v2.53h-0.89V223.42z M181.31,226.07h0.91
		c0.95,0,1.55-0.44,1.55-1.11c0-0.75-0.64-1.08-1.58-1.09c-0.43,0-0.73,0.03-0.88,0.07V226.07z"/>
	<path class="st1" d="M201.07,222.02l-1.3,1.01h-0.72l0.94-1.01H201.07z M200.02,223.34v5.83h-0.89v-5.83H200.02z"/>
	<path class="st1" d="M215.91,227.34l-0.71,1.83h-0.92l2.33-5.83h1.07l2.34,5.83h-0.95l-0.73-1.83H215.91z M218.16,226.75
		l-0.67-1.68c-0.15-0.38-0.25-0.73-0.36-1.06h-0.02c-0.1,0.35-0.21,0.7-0.35,1.06l-0.67,1.69H218.16z"/>
	<path class="st1" d="M234.14,228.25c0.4,0.21,0.98,0.38,1.59,0.38c0.91,0,1.44-0.41,1.44-1c0-0.54-0.37-0.86-1.29-1.16
		c-1.12-0.34-1.81-0.83-1.81-1.65c0-0.91,0.89-1.58,2.22-1.58c0.7,0,1.21,0.14,1.52,0.29l-0.24,0.61c-0.22-0.1-0.68-0.28-1.3-0.28
		c-0.94,0-1.29,0.48-1.29,0.87c0,0.54,0.42,0.81,1.36,1.12c1.16,0.38,1.75,0.86,1.75,1.71c0,0.9-0.78,1.68-2.4,1.68
		c-0.66,0-1.38-0.16-1.75-0.37L234.14,228.25z"/>
	<g>
		<polygon class="st1" points="81.45,118.42 81.45,118.42 81.45,118.42 		"/>
		<path class="st1" d="M77.24,78.4c0,0.06,0,0.12-0.01,0.18c-0.01,0.17-0.01,0.33-0.02,0.5c0,0,0.01,0.01,0.01,0.01
			c0.01-0.49,0.02-0.8,0.02-0.82C77.24,78.32,77.24,78.36,77.24,78.4z"/>
		<path class="st0" d="M149.09,100.13c-0.07,0.29-0.1,0.6-0.08,0.92c0.1,1.96,1.89,3.46,4.01,3.36c0.78-0.04,1.49-0.29,2.07-0.69
			c0.55-0.38,0.54-1.08-0.02-1.43l-4.2-2.71C150.23,99.15,149.25,99.45,149.09,100.13z"/>
		<path class="st0" d="M147.11,104.87c3.31,7.4,8.92,0.31,8.92,0.31C151.55,108.69,147.11,104.87,147.11,104.87z"/>
		<path class="st0" d="M151.11,98.24l4.77,3.24l-4.06-4.42c-0.96-1.05-2.34-1.52-3.67-1.21l-3.68,0.8l4.33,0.67
			C149.64,97.35,150.44,97.69,151.11,98.24z"/>
		<path class="st0" d="M123.16,74.49c4.05,0.93,9.94,8.44,9.94,8.44C125.4,70.23,123.16,74.49,123.16,74.49z"/>
		<path class="st0" d="M124.26,70.23l-3.14-0.56c-1.6-0.28-4.14,2.11-3.82,3.7l0.4,4.18c0.62,3.11,4.45,5.61,7.33,6.94l0.57,0.26
			c-2.09-1.47-3.53-3.68-4.02-6.18l-0.74-3.75c-0.29-1.48,0.89-2.85,2.4-2.76c2.73,0.16,5.23,1.58,6.76,3.84l4.84,7.13l0.09-0.08
			l-4.48-8.27C129.18,72.34,126.9,70.7,124.26,70.23z"/>
		<g>
			<path class="st0" d="M199.66,73.19c-3.48-0.75-7.34-1.98-10.46-4.34c-3.29-2.48-5.51-5.95-6.77-10.57
				c-7.81-2.03-21.92-4.86-40.19-4.96c-18.27,0.09-32.38,2.92-40.19,4.96c-1.26,4.61-3.48,8.08-6.77,10.57
				c-3.13,2.36-6.98,3.59-10.46,4.34c-0.96,10.89-1.06,29.72,5.89,49.67c6.74,19.36,20.7,32.9,31.22,40.85
				c9.02,6.82,17.15,10.82,20.31,12.26c3.17-1.44,11.29-5.45,20.31-12.26c10.52-7.95,24.47-21.49,31.22-40.85
				C200.72,102.92,200.62,84.08,199.66,73.19z M146.92,65.72l2.42-0.06c1.24-0.03,2.12,1.2,1.69,2.36l-1.34,3.67
				c-0.41,1.12-1.07,2.12-1.92,2.91c-2.03-2.37-3.99-4.52-5.85-6.44C143.15,66.66,144.98,65.77,146.92,65.72z M131.44,164.66
				l-2.78-1.79l-2.72-1.87c-0.89-0.65-1.78-1.29-2.66-1.96c-0.86-0.69-1.75-1.35-2.59-2.05c-0.84-0.72-1.71-1.4-2.52-2.15
				c-1.65-1.47-3.26-2.98-4.79-4.57l-1.15-1.19c-0.38-0.4-0.74-0.82-1.11-1.23l-1.1-1.24l-1.06-1.28c-0.72-0.84-1.39-1.72-2.06-2.6
				c-0.69-0.87-1.3-1.79-1.95-2.69c-0.65-0.9-1.22-1.85-1.84-2.77c-0.6-0.93-1.15-1.9-1.72-2.84c-0.54-0.96-1.07-1.94-1.6-2.91
				c-0.49-0.99-1-1.98-1.48-2.98c-0.45-1.01-0.93-2.01-1.36-3.04c-0.41-1.03-0.86-2.04-1.24-3.09c-0.78-2.07-1.5-4.18-2.14-6.3
				c-0.64-2.12-1.2-4.27-1.7-6.43c-0.23-1.08-0.49-2.16-0.7-3.25c-0.2-1.09-0.42-2.18-0.6-3.27l-0.51-3.29l-0.42-3.3
				c-0.23-2.2-0.45-4.41-0.58-6.62c-0.09-1.11-0.13-2.21-0.18-3.32c-0.06-1.11-0.1-2.21-0.11-3.32c-0.07-2.22-0.04-4.43-0.04-6.65
				c0-0.56,0.42-1.02,0.97-1.09l0.06-0.01h0c0.41-0.08,0.9-0.17,1.35-0.27c0.46-0.1,0.91-0.22,1.37-0.34
				c0.46-0.12,0.91-0.25,1.36-0.39c0.45-0.14,0.9-0.29,1.34-0.44c0.44-0.15,0.88-0.32,1.31-0.5c0.43-0.19,0.86-0.37,1.28-0.57
				c0.42-0.21,0.84-0.41,1.24-0.65c0.41-0.22,0.8-0.47,1.19-0.73l0.57-0.4l0.55-0.43c0.36-0.3,0.72-0.59,1.04-0.92
				c0.34-0.32,0.64-0.68,0.96-1.02c0.29-0.37,0.6-0.73,0.85-1.13c0.28-0.38,0.5-0.81,0.74-1.22c0.2-0.43,0.42-0.86,0.59-1.31
				c0.09-0.23,0.19-0.45,0.27-0.68l0.22-0.7c0.15-0.47,0.24-0.95,0.37-1.43c-0.01,0.49,0.03,1-0.03,1.5l-0.07,0.75
				c-0.03,0.25-0.08,0.5-0.12,0.75c-0.06,0.51-0.24,0.99-0.37,1.48c-0.18,0.48-0.34,0.97-0.57,1.43c-0.2,0.48-0.47,0.92-0.72,1.38
				c-0.28,0.44-0.57,0.87-0.9,1.28c-0.16,0.21-0.32,0.41-0.5,0.6c-0.18,0.19-0.34,0.4-0.53,0.58l-0.56,0.55l-0.59,0.52
				c-0.4,0.33-0.81,0.66-1.24,0.96c-0.43,0.3-0.87,0.57-1.32,0.84c-0.45,0.26-0.91,0.51-1.38,0.73c-0.47,0.22-0.94,0.43-1.42,0.62
				c-0.96,0.37-1.95,0.69-2.95,0.93c-0.5,0.12-1.01,0.16-1.52,0.25c-0.19,0.03-0.39,0.05-0.58,0.08c-0.05,1.87-0.1,3.74-0.08,5.6
				c-0.01,1.09,0.01,2.2,0.04,3.29c0.03,1.09,0.04,2.19,0.11,3.29c0.09,2.19,0.25,4.37,0.44,6.55l0.34,3.26l0.43,3.25
				c0.16,1.08,0.35,2.16,0.52,3.24c0.18,1.08,0.41,2.15,0.62,3.22c0.45,2.14,0.96,4.27,1.54,6.37c0.58,2.11,1.25,4.19,1.97,6.25
				c0.35,1.03,0.77,2.04,1.16,3.07c0.4,1.02,0.85,2.01,1.28,3.02c0.45,1,0.93,1.98,1.39,2.97l1.52,2.91
				c0.55,0.95,1.07,1.91,1.64,2.84c0.59,0.92,1.13,1.87,1.76,2.77c0.62,0.9,1.21,1.83,1.87,2.7c0.65,0.88,1.29,1.77,1.98,2.62
				l1.02,1.29l1.07,1.25c0.36,0.41,0.71,0.84,1.08,1.24l1.12,1.21c1.49,1.61,3.06,3.15,4.67,4.65c0.79,0.76,1.64,1.46,2.46,2.19
				c0.83,0.72,1.69,1.4,2.54,2.1c0.86,0.68,1.74,1.34,2.61,2.01l2.68,1.93l2.74,1.85l2.79,1.76L131.44,164.66z M183.87,111.22
				c-1.04,3.81-2.62,8.41-5.11,13.08c-0.8,1.5-2.12,2.63-3.66,3.2c-3.97,0.7-6.86,0.5-8.22-0.59c-0.63-0.5-0.93-1.21-0.93-2.15
				c0-0.65-0.26-1.24-0.75-1.69c-1.32-1.22-6.32-0.32-5.9-0.35c0.01,0,1,0.04,2.03,0.12c1.24,0.1,2.47,0.46,2.9,0.86
				c0.18,0.16,0.2,0.82,0.2,1.05c0,0.47,0.06,0.9,0.17,1.31c0.25,0.91-0.42,1.82-1.37,1.82l-11.71,0c-6.5,0-12.76-2.45-17.5-6.9
				l-4.54-4.24l8.5,20.05c0.53,1.24,0.8,2.58,0.8,3.93v21.41c0,1.29-1.4,2.09-2.52,1.44c-45.02-26.03-43.27-72.41-42.44-81.67
				c0.09-0.97,0.75-1.79,1.68-2.08c2.21-0.68,6.29-2.08,8.38-3.65c2.7-2.04,4.64-4.78,5.88-8.32c0.37-1.05,1.23-1.84,2.31-2.11
				c3.97-0.97,9.27-2.05,15.68-2.87c2.07-0.27,4.18-0.1,6.16,0.54c0.88,0.29,1.63,0.63,2.32,1.03c1.73,1.01,15.57,16.81,17.26,19.45
				c0.34,0.53,0.67,1.06,1.01,1.61c1.42,2.29,2.65,4.68,3.69,7.16c0.4,0.96,1.11,2.14,2.33,3.14c0,0-2.29-2.83-1.63-5.78
				c0.34-0.03,0.33-0.03,0.67-0.06c0.89,2.01,2.49,2.84,2.49,2.84c-1.93-2.09-1.93-4.05-1.66-5.23c1.51-2.3,2.51-4.88,2.89-7.62
				c0.08-0.61,0.92-0.71,1.13-0.13l0,0.01c1.32,3.51,1.71,8.73,1.11,13.47c0,0.03-0.01,0.07-0.01,0.1c-0.01,0.1-0.03,0.2-0.04,0.31
				c-0.39,2.15-2.8,0.43-2.8,0.43c1.12,1,1.92,1.48,2.48,1.63c-0.07,0.42-0.14,0.82-0.24,1.2c0.24,2.28,3.95,4.15,3.95,4.15
				c-3.49-3.87-1.83-4.78-1.83-4.78c0.34-0.12,0.68-0.25,1.02-0.39c0.26-0.11,0.56,0.05,0.61,0.33c0.33,1.72,2.12,2.57,6.59,2.41
				c0,0-8.24-0.71-2.98-5.11v0c4.48-3.27,7.58-8.32,8.25-14.11c0.06-0.54,0.81-0.61,0.98-0.1c1.69,5.23,1.61,14.24-0.41,19.81
				c0,0-1.72,2.81-8.78,0.81c0,0,4.29,2.2,7.61,1.66c-0.45,0.7-0.95,1.28-1.51,1.69C178.41,103.3,185.78,104.24,183.87,111.22z"/>
		</g>
		<path class="st1" d="M203.01,118.52c0.01-0.05,0.03-0.1,0.04-0.16C203.03,118.42,203.02,118.47,203.01,118.52
			C203.01,118.52,203.01,118.52,203.01,118.52z"/>
		<path class="st1" d="M77.79,99.84c-0.27-2.23-0.47-4.4-0.62-6.5C77.32,95.44,77.52,97.61,77.79,99.84z"/>
		<path class="st1" d="M207.53,78.66c0.06,1.63,0.1,3.35,0.1,5.17C207.64,82.01,207.6,80.28,207.53,78.66z"/>
		<path class="st1" d="M213.38,83.85c0.03-0.26,0.04-0.49,0.04-0.69l0-0.37c-0.01-0.93-0.01-1.9-0.04-2.84c0-0.1,0-0.21,0-0.34
			c0-0.06,0.04-0.11,0.04-0.17c0-0.11,0.03-0.22,0.03-0.33v-0.03c0-0.07-0.04-0.14-0.05-0.2l-0.03-0.14c0-0.11-0.02-0.22-0.02-0.32
			l-0.01-0.25c-0.01-0.15-0.01-0.3-0.02-0.45l-0.01-0.26c-0.01-0.14-0.01-0.29-0.02-0.42l-0.05-0.95c-0.01-0.13-0.02-0.27-0.02-0.39
			l-0.06-0.88c-0.02-0.24-0.03-0.48-0.05-0.71l-0.09-1.23l-0.32-3.39c-0.02-0.18-0.04-0.35-0.06-0.52
			c-0.46-4.11-3.64-7.46-7.72-8.14c-8.48-1.41-9.13-3.16-9.92-7.32c-0.65-3.46-3.19-5.98-6.62-6.95c-7.66-2.16-23.79-5.74-45.8-5.74
			h-0.02h-0.1c-22.01,0-38.14,3.58-45.8,5.74c-3.43,0.97-5.96,3.61-6.62,7.09c-0.78,4.16-1.44,5.84-9.92,7.25
			c-4.08,0.68-7.26,3.99-7.72,8.1c-0.02,0.17-0.04,0.32-0.06,0.5l-0.06,0.53l-0.35,3.94c-0.02,0.31-0.04,0.62-0.07,0.94l-0.01,0.11
			c-0.01,0.14-0.02,0.29-0.03,0.44l-0.09,1.77h0c0,0-0.18,5.63-0.2,9.37c0.27,14.22,2.65,27.87,7.07,40.55
			c3.49,10.01,8.88,19.49,15.99,28.18c5.61,6.85,12.31,13.22,19.9,18.94c12.89,9.7,24.06,14.24,24.53,14.43
			c1.11,0.45,2.28,0.67,3.47,0.67c1.19,0,2.36-0.23,3.47-0.67c0.47-0.19,11.63-4.73,24.52-14.43c7.59-5.72,14.29-12.09,19.89-18.94
			c7.11-8.69,12.49-18.17,15.98-28.18c3.66-10.51,5.93-21.77,6.74-33.48l0-0.05c0.02-0.28,0.04-0.55,0.05-0.82l0-0.04
			c0.01-0.23,0.03-0.47,0.04-0.7l0.01-0.14c0.11-1.86,0.17-3.74,0.21-5.59l0-0.09c0-0.23,0.01-0.45,0.01-0.68l0-0.12
			c0-0.22,0-0.44,0.01-0.65C213.46,84.52,213.44,84.2,213.38,83.85z M81.45,118.42C81.45,118.42,81.45,118.42,81.45,118.42
			C81.45,118.42,81.45,118.42,81.45,118.42L81.45,118.42z M207.61,86.73c0,0.12,0,0.24-0.01,0.36c-0.02,0.91-0.05,1.84-0.09,2.78
			c-0.01,0.12-0.01,0.24-0.02,0.36c-0.04,0.96-0.1,1.94-0.17,2.94c-0.01,0.08-0.01,0.17-0.02,0.25c-0.15,2.1-0.35,4.26-0.62,6.49
			c-0.01,0.07-0.02,0.13-0.02,0.2c-0.13,1.07-0.28,2.16-0.44,3.26c-0.02,0.13-0.04,0.25-0.06,0.38c-0.16,1.08-0.34,2.17-0.54,3.28
			c-0.02,0.14-0.05,0.28-0.07,0.41c-0.2,1.12-0.42,2.24-0.66,3.38c-0.02,0.1-0.04,0.19-0.06,0.29c-0.51,2.38-1.1,4.8-1.78,7.25
			c-0.01,0.05-0.03,0.1-0.04,0.16c0,0,0,0,0,0c-0.63,2.25-1.34,4.52-2.14,6.81c-3.27,9.39-8.33,18.31-15.03,26.49
			c-5.33,6.51-11.7,12.57-18.94,18.02c-12.31,9.27-22.82,13.54-23.26,13.71c-0.41,0.16-0.83,0.24-1.26,0.26
			c-0.43-0.02-0.86-0.09-1.26-0.26c-0.44-0.18-10.94-4.45-23.25-13.71c-7.24-5.45-13.61-11.51-18.94-18.02
			c-6.7-8.19-11.75-17.1-15.03-26.49c-0.77-2.22-1.46-4.42-2.07-6.61c-3.34-11.83-4.49-23.01-4.65-32.27
			c-0.01-0.01-0.02-0.01-0.02-0.03c-0.1-0.57,0.02-5.38,0.07-7.33c0,0-0.01-0.01-0.01-0.01c0.01-0.17,0.01-0.33,0.02-0.5
			c0-0.06,0-0.12,0.01-0.18c0-0.04,0-0.08,0.01-0.13c0,0,0-0.01,0-0.01l0,0c0-0.11,0.01-0.22,0.01-0.33c0-0.07,0.01-0.14,0.01-0.21
			c0.01-0.15,0.01-0.29,0.02-0.44c0-0.07,0.01-0.14,0.01-0.22c0.01-0.14,0.01-0.29,0.02-0.43c0-0.07,0.01-0.14,0.01-0.21
			c0.01-0.14,0.02-0.28,0.02-0.42c0-0.06,0.01-0.13,0.01-0.19c0.01-0.14,0.02-0.29,0.03-0.43c0-0.03,0-0.06,0.01-0.09
			c0.02-0.3,0.04-0.6,0.06-0.89c0-0.06,0.01-0.13,0.01-0.19c0.01-0.11,0.02-0.22,0.02-0.33c0.01-0.09,0.01-0.18,0.02-0.27
			c0.01-0.1,0.02-0.2,0.02-0.3c0.01-0.1,0.02-0.19,0.02-0.28c0.01-0.1,0.02-0.19,0.02-0.28c0.01-0.1,0.02-0.19,0.02-0.29
			c0.01-0.09,0.02-0.18,0.02-0.27c0.01-0.1,0.02-0.19,0.03-0.29c0.01-0.09,0.02-0.17,0.02-0.26c0.01-0.1,0.02-0.2,0.03-0.3
			c0.01-0.08,0.02-0.16,0.02-0.23c0.01-0.1,0.02-0.2,0.03-0.31c0.01-0.07,0.01-0.14,0.02-0.22c0.01-0.11,0.02-0.22,0.03-0.32
			c0.01-0.06,0.01-0.12,0.02-0.18c0.02-0.17,0.04-0.33,0.05-0.49c0.19-1.67,1.46-3.01,3.12-3.28c9.68-1.61,13.06-4.36,14.46-11.77
			c0.26-1.4,1.3-2.53,2.67-2.92c7.56-2.13,23.36-4.81,44.34-5.81c0.01,0,0.02,0,0.04,0c17.66,0.84,31.64,2.87,40.13,4.76
			c1.48,0.37,2.81,0.72,3.94,1.03c1.37,0.39,2.41,1.52,2.67,2.92c1.4,7.41,4.78,10.16,14.46,11.77c1.66,0.28,2.93,1.62,3.12,3.28
			c0.06,0.56,0.13,1.16,0.19,1.78c0.01,0.08,0.02,0.15,0.02,0.23c0.06,0.6,0.11,1.23,0.16,1.88c0.01,0.11,0.02,0.21,0.03,0.32
			c0.05,0.65,0.1,1.33,0.14,2.03c0.01,0.11,0.01,0.22,0.02,0.34c0.04,0.72,0.08,1.46,0.11,2.23c0,0.08,0.01,0.17,0.01,0.25
			c0.06,1.63,0.1,3.35,0.1,5.17c0,0.07,0,0.15,0,0.22C207.64,84.92,207.63,85.82,207.61,86.73z"/>
		<path class="st0" d="M172.65,116.89c-0.79,0.2-1.48,0.55-1.99,0.97c-0.37,0.31-0.06,0.89,0.41,0.77c0.01,0,0.01,0,0.02,0
			c1.33-0.33,2.66,0.37,2.95,1.56c0.03,0.1,0.04,0.21,0.05,0.31c0.03,0.31,0.36,0.49,0.64,0.36c1.33-0.62,2.14-1.69,1.89-2.66
			C176.32,117,174.54,116.42,172.65,116.89z"/>
		<polygon class="st1" points="77.24,78.27 77.24,78.28 77.24,78.27 		"/>
	</g>
</g>
</svg>
