<svg id="Layer_35" enable-background="new 0 0 64 64" height="512" viewBox="0 0 64 64" width="512" xmlns="http://www.w3.org/2000/svg"><path d="m62 16-10 10h-1.46c.3-.95.46-1.95.46-3 0-5.52-4.48-10-10-10-2.28 0-4.37.77-6.05 2.05l13.05-13.05z" fill="#b4dd7f"/><path d="m24 26 9.05-9.05c-1.28 1.68-2.05 3.77-2.05 6.05 0 1.05.16 2.05.46 3z" fill="#b4dd7f"/><path d="m38 26h-6.54c-.3-.95-.46-1.95-.46-3 0-2.28.77-4.37 2.05-6.05l1.9-1.9c1.68-1.28 3.77-2.05 6.05-2.05 5.52 0 10 4.48 10 10 0 1.05-.16 2.05-.46 3z" fill="#fcd770"/><path d="m19 59 1-1h42v4h-60v-4h16z" fill="#b4dd7f"/><path d="m18 58h-16v-4h12z" fill="#a0d468"/><path d="m62 58h-42l4-4h17l1 1 1-1h19z" fill="#a0d468"/><path d="m20 58-1 1-1-1-4-4h10z" fill="#8cc152"/><path d="m41 54-4-4h10l-4 4-1 1z" fill="#8cc152"/><path d="m52 26h-1.46-12.54-6.54-7.46-22v28h12 10 17l-4-4h-5-22c0-2.21-1.79-4-4-4v-12c2.21 0 4-1.79 4-4h22 22c0 2.16 1.71 3.92 3.85 3.99.05.01.1.01.15.01v12c-2.21 0-4 1.79-4 4h-7l-4 4h19v-24-4z" fill="#b4dd7f"/><path d="m10 30h22c-5.52 0-10 4.48-10 10s4.48 10 10 10h-22c0-2.21-1.79-4-4-4v-12c2.21 0 4-1.79 4-4z" fill="#e6e9ed"/><path d="m32 50c5.52 0 10-4.48 10-10s-4.48-10-10-10h22c0 2.16 1.71 3.92 3.85 3.99.05.01.1.01.15.01v12c-2.21 0-4 1.79-4 4h-7-10z" fill="#e6e9ed"/><path d="m32 30c5.52 0 10 4.48 10 10s-4.48 10-10 10-10-4.48-10-10 4.48-10 10-10z" fill="#fcd770"/><circle cx="6" cy="30" r="1"/><circle cx="6" cy="50" r="1"/><circle cx="58" cy="30" r="1"/><path d="m32 37c.551 0 1 .448 1 1h2c0-1.302-.839-2.402-2-2.816v-2.184h-2v2h-2v3c0 1.654 1.346 3 3 3 .551 0 1 .448 1 1v1h-1c-.551 0-1-.448-1-1h-2c0 1.302.839 2.402 2 2.816v2.184h2v-2h2v-3c0-1.654-1.346-3-3-3-.551 0-1-.448-1-1v-1z"/><circle cx="38" cy="40" r="1"/><circle cx="26" cy="40" r="1"/><circle cx="58" cy="50" r="1"/><path d="m48 9.071 1.636 1.636 1.414-1.414-3.05-3.05-3.05 3.05 1.414 1.414z"/><path d="m54.707 19.05 3.05-3.05-3.05-3.05-1.414 1.414 1.636 1.636-1.636 1.636z"/><path d="m63.414 16-15.414-15.414-24.414 24.414h-22.586v38h62v-38h-8.586zm-21.414 6.586-.585-.586c-.268-.268-.415-.622-.415-1s.147-.732.414-1l.586-.586 1.585 1.586c.268.268.415.622.415 1s-.147.732-.414 1l-.293.293 1.414 1.414.293-.293c.645-.646 1-1.503 1-2.414 0-.713-.223-1.388-.626-1.959l1.333-1.333-1.414-1.414-1.293 1.292-2-2-2 2c-.645.646-1 1.503-1 2.414s.355 1.769 1 2.414l.585.586c.268.268.415.622.415 1h-2.585c-.268-.268-.415-.622-.415-1s.147-.732.414-1l.293-.293-1.414-1.414-.293.293c-.645.646-1 1.503-1 2.414 0 .346.067.678.165 1h-3.915c-.149-.655-.25-1.321-.25-2 0-1.961.63-3.828 1.819-5.405l1.778-1.778c1.575-1.187 3.442-1.817 5.403-1.817 4.962 0 9 4.037 9 9 0 .679-.102 1.345-.253 2h-6.747c0-.911-.355-1.769-1-2.414zm18.586-6.586-8.724 8.724c.091-.568.138-1.144.138-1.724 0-6.065-4.935-11-11-11-.582 0-1.158.048-1.723.137l8.723-8.723zm-30.449 5.277c-.089.565-.137 1.141-.137 1.723 0 .675.068 1.343.189 2h-3.775zm-7.137 18.723c0-4.963 4.038-9 9-9s9 4.037 9 9-4.038 9-9 9-9-4.037-9-9zm2.695 9h-14.796c-.398-1.956-1.943-3.501-3.899-3.899v-10.202c1.956-.398 3.501-1.943 3.899-3.899h14.796c-2.834 1.992-4.695 5.28-4.695 9s1.861 7.008 4.695 9zm12.61 0c2.834-1.992 4.695-5.28 4.695-9s-1.861-7.008-4.695-9h14.796c.398 1.956 1.943 3.501 3.899 3.899v10.201c-1.956.398-3.501 1.943-3.899 3.899h-14.796zm6.281 2-2.586 2.586-2.586-2.586zm-2.586 5.414 1.414-1.414h17.586v2h-38.586l2-2h16.172zm-23 1.172-2.586-2.586h5.172zm-5.414-2.586 2 2h-12.586v-2zm-10.586 6v-2h14.586l1.414 1.414 1.414-1.414h40.586v2zm58-8h-15.586l2-2h7.586v-1c0-1.654 1.346-3 3-3h1v-14h-1c-1.654 0-3-1.346-3-3v-1h-46v1c0 1.654-1.346 3-3 3h-1v14h1c1.654 0 3 1.346 3 3v1h27.586l2 2h-35.586v-26h58z"/><path d="m12 33h2v2h-2z"/><path d="m16 33h2v2h-2z"/><path d="m50 45h2v2h-2z"/><path d="m46 45h2v2h-2z"/></svg>