<?xml version="1.0" encoding="utf-8"?>
<!-- Generator: Adobe Illustrator 24.3.0, SVG Export Plug-In . SVG Version: 6.00 Build 0)  -->
<svg version="1.1" id="Capa_1" xmlns="http://www.w3.org/2000/svg" xmlns:xlink="http://www.w3.org/1999/xlink" x="0px" y="0px"
	 viewBox="0 0 217.2 190.9" style="enable-background:new 0 0 217.2 190.9;" xml:space="preserve">
<style type="text/css">
	.st0{fill:#41914D;}
	.st1{fill:#323232;}
</style>
<g>
	<path class="st0" d="M19.3,157.5c0.4,0,0.6,0.2,0.6,0.6v2.5c0,0.4-0.2,0.6-0.6,0.6H7.7c-0.7,0-1.3,0.1-1.7,0.2
		c-0.5,0.1-0.8,0.3-1.1,0.6s-0.5,0.6-0.6,1.1s-0.2,1.1-0.2,1.8v0.5h15.1c0.4,0,0.6,0.2,0.6,0.6v2.1c0,0.4-0.2,0.6-0.6,0.6H4.1v7
		c0,0.4-0.2,0.6-0.6,0.6H0.6c-0.4,0-0.6-0.2-0.6-0.6v-11.1c0-1.3,0.1-2.4,0.4-3.3c0.3-0.9,0.7-1.6,1.3-2.2c0.6-0.6,1.4-1,2.3-1.2
		c1-0.3,2.1-0.4,3.5-0.4L19.3,157.5L19.3,157.5z"/>
	<path class="st0" d="M52.2,157.5c2.1,0,3.5,0.5,4.4,1.4s1.3,2.3,1.3,4.1v1.5c0,1.5-0.3,2.8-0.9,3.6c-0.6,0.9-1.7,1.5-3.1,1.7
		l4.6,5.7c0.1,0.1,0.1,0.2,0.1,0.4s-0.2,0.3-0.4,0.3h-3.5c-0.2,0-0.4,0-0.5-0.1s-0.2-0.1-0.3-0.3l-4.2-5.6H41v5.3
		c0,0.4-0.2,0.6-0.6,0.6h-2.9c-0.4,0-0.6-0.2-0.6-0.6v-17.4c0-0.5,0.3-0.8,0.8-0.8L52.2,157.5L52.2,157.5z M41.1,167.1h10.3
		c0.9,0,1.6-0.2,1.9-0.6c0.4-0.4,0.6-1,0.6-1.8v-1.1c0-0.8-0.2-1.4-0.6-1.8c-0.4-0.4-1-0.6-1.9-0.6h-9.9c-0.2,0-0.3,0.1-0.3,0.3v5.6
		H41.1z"/>
	<path class="st0" d="M87.6,157.5c0.7,0,1.2,0.1,1.7,0.4c0.5,0.3,0.9,0.8,1.4,1.6l8.9,16.1c0.1,0.2,0.1,0.3,0.1,0.4
		c-0.1,0.1-0.2,0.2-0.4,0.2h-3.4c-0.3,0-0.5-0.1-0.6-0.4l-1.9-3.5H80.7l-1.8,3.5c-0.1,0.2-0.3,0.4-0.6,0.4h-3.5
		c-0.2,0-0.4-0.1-0.4-0.2c-0.1-0.1,0-0.3,0.1-0.4l8.8-16.1c0.4-0.8,0.9-1.4,1.3-1.6c0.4-0.3,0.9-0.4,1.5-0.4H87.6z M82.4,169.4h9.2
		l-4.3-7.9c-0.1-0.1-0.2-0.2-0.3-0.2h-0.2c-0.1,0-0.2,0.1-0.3,0.2L82.4,169.4z"/>
	<path class="st0" d="M121,157.5c0.4,0,0.8,0,1.1,0c0.3,0,0.5,0.1,0.8,0.2s0.4,0.3,0.6,0.5s0.4,0.5,0.7,0.8l10,13.1
		c0.1,0.1,0.2,0.2,0.4,0.2h0.2c0.1,0,0.2-0.1,0.2-0.3v-14c0-0.4,0.2-0.6,0.6-0.6h2.8c0.4,0,0.6,0.2,0.6,0.6v15.4
		c0,1.1-0.2,1.8-0.6,2.2c-0.4,0.4-1,0.6-1.8,0.6h-2.3c-0.4,0-0.8,0-1,0c-0.3,0-0.5-0.1-0.7-0.2c-0.2-0.1-0.4-0.3-0.6-0.5
		c-0.2-0.2-0.4-0.5-0.7-0.9l-10-13.1c-0.1-0.1-0.2-0.2-0.4-0.2h-0.2c-0.1,0-0.2,0.1-0.2,0.3v14c0,0.4-0.2,0.6-0.6,0.6h-2.8
		c-0.4,0-0.6-0.2-0.6-0.6v-15.4c0-1.1,0.2-1.8,0.6-2.2s1-0.6,1.8-0.6L121,157.5L121,157.5z"/>
	<path class="st0" d="M176.3,157.5c0.4,0,0.6,0.2,0.6,0.6v2.6c0,0.4-0.2,0.6-0.6,0.6h-11.9c-0.7,0-1.3,0.1-1.7,0.2
		c-0.4,0.1-0.8,0.3-1.1,0.6s-0.5,0.6-0.6,1.1s-0.2,1.1-0.2,1.8v3.8c0,0.7,0.1,1.3,0.2,1.8c0.1,0.5,0.3,0.9,0.6,1.1s0.6,0.5,1.1,0.6
		s1,0.2,1.7,0.2h11.9c0.4,0,0.6,0.2,0.6,0.6v2.6c0,0.4-0.2,0.6-0.6,0.6h-12.1c-1.4,0-2.5-0.1-3.5-0.4c-0.9-0.2-1.7-0.7-2.3-1.2
		s-1-1.3-1.3-2.2s-0.4-2-0.4-3.3v-4.6c0-1.3,0.1-2.4,0.4-3.3c0.3-0.9,0.7-1.6,1.3-2.2c0.6-0.6,1.4-1,2.3-1.2
		c0.9-0.3,2.1-0.4,3.5-0.4L176.3,157.5L176.3,157.5z"/>
	<path class="st0" d="M209.7,157.5c1.4,0,2.5,0.1,3.5,0.4c1,0.3,1.7,0.7,2.3,1.2s1,1.3,1.3,2.2s0.4,2,0.4,3.3v4.6
		c0,1.3-0.1,2.4-0.4,3.3c-0.3,0.9-0.7,1.6-1.3,2.2s-1.4,1-2.3,1.2c-1,0.2-2.1,0.4-3.5,0.4h-8.3c-1.4,0-2.5-0.1-3.5-0.4
		c-0.9-0.2-1.7-0.7-2.3-1.2s-1-1.3-1.3-2.2s-0.4-2-0.4-3.3v-4.6c0-1.3,0.1-2.4,0.4-3.3c0.3-0.9,0.7-1.6,1.3-2.2
		c0.6-0.6,1.4-1,2.3-1.2c0.9-0.3,2.1-0.4,3.5-0.4H209.7z M198,168.9c0,0.7,0.1,1.3,0.2,1.8c0.1,0.5,0.3,0.9,0.6,1.1s0.6,0.5,1.1,0.6
		s1,0.2,1.7,0.2h8c0.7,0,1.3-0.1,1.7-0.2c0.5-0.1,0.8-0.3,1.1-0.6s0.5-0.6,0.6-1.1s0.2-1.1,0.2-1.8v-4c0-0.7-0.1-1.3-0.2-1.8
		c-0.1-0.5-0.3-0.9-0.6-1.1s-0.6-0.5-1.1-0.6s-1-0.2-1.7-0.2h-8c-0.7,0-1.3,0.1-1.7,0.2c-0.5,0.1-0.8,0.3-1.1,0.6s-0.5,0.6-0.6,1.1
		s-0.2,1.1-0.2,1.8V168.9z"/>
	<path class="st1" d="M17.9,188.2c-0.3,0.1-1,0.3-1.8,0.3c-1.9,0-3.4-1-3.4-2.9c0-1.8,1.5-3.1,3.6-3.1c0.9,0,1.4,0.2,1.6,0.3
		l-0.2,0.6c-0.3-0.1-0.8-0.2-1.4-0.2c-1.6,0-2.7,0.9-2.7,2.4c0,1.4,1,2.3,2.6,2.3c0.5,0,1.1-0.1,1.5-0.2L17.9,188.2z"/>
	<path class="st1" d="M33.4,186.5l-0.7,1.8h-0.9l2.3-5.8h1.1l2.3,5.8h-0.9l-0.7-1.8H33.4z M35.7,185.9l-0.7-1.7
		c-0.2-0.4-0.2-0.7-0.4-1.1l0,0c-0.1,0.4-0.2,0.7-0.3,1.1l-0.7,1.7H35.7L35.7,185.9z"/>
	<path class="st1" d="M51.8,182.6c0.4-0.1,1.1-0.1,1.7-0.1c0.9,0,1.6,0.1,2,0.5c0.3,0.3,0.5,0.7,0.5,1.1c0,0.8-0.6,1.3-1.3,1.5l0,0
		c0.5,0.2,0.8,0.6,1,1.2c0.2,0.8,0.4,1.4,0.5,1.6h-0.9c-0.1-0.2-0.3-0.7-0.5-1.4c-0.2-0.8-0.6-1.1-1.4-1.1h-0.8v2.5h-0.9
		C51.8,188.4,51.8,182.6,51.8,182.6z M52.7,185.2h0.9c0.9,0,1.6-0.4,1.6-1.1c0-0.8-0.6-1.1-1.6-1.1c-0.4,0-0.7,0-0.9,0.1
		C52.7,183.1,52.7,185.2,52.7,185.2z"/>
	<path class="st1" d="M70.5,182.6c0.4-0.1,1.1-0.1,1.7-0.1c0.9,0,1.6,0.1,2,0.5c0.3,0.3,0.5,0.7,0.5,1.1c0,0.8-0.6,1.3-1.3,1.5l0,0
		c0.5,0.2,0.8,0.6,1,1.2c0.2,0.8,0.4,1.4,0.5,1.6H74c-0.1-0.2-0.3-0.7-0.5-1.4c-0.2-0.8-0.6-1.1-1.4-1.1h-0.8v2.5h-0.9v-5.8H70.5z
		 M71.4,185.2h0.9c0.9,0,1.6-0.4,1.6-1.1c0-0.8-0.6-1.1-1.6-1.1c-0.4,0-0.7,0-0.9,0.1C71.4,183.1,71.4,185.2,71.4,185.2z"/>
	<path class="st1" d="M95.1,185.4c0,2-1.4,3.1-3.2,3.1c-1.8,0-3.1-1.2-3.1-3c0-1.9,1.4-3.1,3.2-3.1
		C93.9,182.4,95.1,183.6,95.1,185.4z M89.8,185.5c0,1.2,0.8,2.4,2.2,2.4c1.4,0,2.2-1.1,2.2-2.4c0-1.2-0.7-2.4-2.2-2.4
		C90.5,183,89.8,184.2,89.8,185.5z"/>
	<path class="st1" d="M114.3,188.2c-0.3,0.1-1,0.3-1.8,0.3c-1.9,0-3.4-1-3.4-2.9c0-1.8,1.5-3.1,3.6-3.1c0.9,0,1.4,0.2,1.6,0.3
		l-0.2,0.6c-0.3-0.1-0.8-0.2-1.4-0.2c-1.6,0-2.7,0.9-2.7,2.4c0,1.4,1,2.3,2.6,2.3c0.5,0,1.1-0.1,1.4-0.2L114.3,188.2z"/>
	<path class="st1" d="M132.2,185.6h-2.7v2.1h3v0.6h-3.9v-5.8h3.7v0.6h-2.8v1.8h2.7V185.6z"/>
	<path class="st1" d="M146.9,182.6c0.4-0.1,1.1-0.1,1.7-0.1c0.9,0,1.6,0.1,2,0.5c0.4,0.3,0.5,0.7,0.5,1.1c0,0.8-0.6,1.3-1.3,1.5l0,0
		c0.5,0.2,0.9,0.6,1,1.2c0.2,0.8,0.4,1.4,0.5,1.6h-0.9c-0.1-0.2-0.3-0.7-0.5-1.4c-0.2-0.8-0.6-1.1-1.4-1.1h-0.8v2.5h-0.9
		L146.9,182.6L146.9,182.6z M147.8,185.2h0.9c0.9,0,1.6-0.4,1.6-1.1c0-0.8-0.6-1.1-1.6-1.1c-0.4,0-0.7,0-0.9,0.1V185.2z"/>
	<path class="st1" d="M167.5,181.2l-1.3,1h-0.7l0.9-1H167.5z M166.5,182.5v5.8h-0.9v-5.8H166.5z"/>
	<path class="st1" d="M182.4,186.5l-0.7,1.8h-0.9l2.3-5.8h1.1l2.3,5.8h-0.9l-0.7-1.8H182.4z M184.6,185.9l-0.7-1.7
		c-0.1-0.4-0.2-0.7-0.4-1.1l0,0c-0.1,0.4-0.2,0.7-0.4,1.1l-0.7,1.7H184.6L184.6,185.9z"/>
	<path class="st1" d="M200.6,187.4c0.4,0.2,1,0.4,1.6,0.4c0.9,0,1.4-0.4,1.4-1c0-0.5-0.4-0.9-1.3-1.2c-1.1-0.3-1.8-0.8-1.8-1.6
		c0-0.9,0.9-1.6,2.2-1.6c0.7,0,1.2,0.1,1.5,0.3l-0.2,0.6c-0.2-0.1-0.7-0.3-1.3-0.3c-0.9,0-1.3,0.5-1.3,0.9c0,0.5,0.4,0.8,1.4,1.1
		c1.2,0.4,1.8,0.9,1.8,1.7c0,0.9-0.8,1.7-2.4,1.7c-0.7,0-1.4-0.2-1.8-0.4L200.6,187.4z"/>
	<g>
		<path class="st1" d="M47.9,77.6L47.9,77.6L47.9,77.6z"/>
		<path class="st1" d="M43.7,37.6c0,0.1,0,0.1,0,0.2c0,0.2,0,0.3,0,0.5l0,0C43.7,37.8,43.7,37.5,43.7,37.6
			C43.7,37.5,43.7,37.5,43.7,37.6z"/>
		<path class="st0" d="M115.5,59.3c-0.1,0.3-0.1,0.6-0.1,0.9c0.1,2,1.9,3.5,4,3.4c0.8,0,1.5-0.3,2.1-0.7s0.5-1.1,0-1.4l-4.2-2.7
			C116.7,58.3,115.7,58.6,115.5,59.3z"/>
		<path class="st0" d="M113.6,64c3.3,7.4,8.9,0.3,8.9,0.3C118,67.9,113.6,64,113.6,64z"/>
		<path class="st0" d="M117.6,57.4l4.8,3.2l-4.1-4.4c-1-1.1-2.3-1.5-3.7-1.2l-3.7,0.8l4.3,0.7C116.1,56.5,116.9,56.9,117.6,57.4z"/>
		<path class="st0" d="M89.6,33.7c4.1,0.9,9.9,8.4,9.9,8.4C91.8,29.4,89.6,33.7,89.6,33.7z"/>
		<path class="st0" d="M90.7,29.4l-3.1-0.6c-1.6-0.3-4.1,2.1-3.8,3.7l0.4,4.2c0.6,3.1,4.4,5.6,7.3,6.9l0.6,0.3
			c-2.1-1.5-3.5-3.7-4-6.2L87.3,34c-0.3-1.5,0.9-2.8,2.4-2.8c2.7,0.2,5.2,1.6,6.8,3.8l4.8,7.1l0.1-0.1l-4.5-8.3
			C95.6,31.5,93.3,29.9,90.7,29.4z"/>
		<g>
			<path class="st0" d="M166.1,32.4c-3.5-0.8-7.3-2-10.5-4.3c-3.3-2.5-5.5-6-6.8-10.6c-7.8-2-21.9-4.9-40.2-5
				c-18.3,0.1-32.4,2.9-40.2,5c-1.3,4.6-3.5,8.1-6.8,10.6c-3.1,2.4-7,3.6-10.5,4.3c-1,10.9-1.1,29.7,5.9,49.7
				c6.7,19.4,20.7,32.9,31.2,40.8c9,6.8,17.1,10.8,20.3,12.3c3.2-1.4,11.3-5.4,20.3-12.3c10.5-7.9,24.5-21.5,31.2-40.8
				C167.2,62.1,167.1,43.3,166.1,32.4z M113.4,24.9l2.4-0.1c1.2,0,2.1,1.2,1.7,2.4l-1.3,3.7c-0.4,1.1-1.1,2.1-1.9,2.9
				c-2-2.4-4-4.5-5.9-6.4C109.6,25.8,111.4,24.9,113.4,24.9z M97.9,123.8l-2.8-1.8l-2.7-1.9c-0.9-0.6-1.8-1.3-2.7-2
				c-0.9-0.7-1.8-1.4-2.6-2.1c-0.8-0.7-1.7-1.4-2.5-2.1c-1.7-1.5-3.3-3-4.8-4.6l-1.2-1.2c-0.4-0.4-0.7-0.8-1.1-1.2l-1.1-1.2
				l-1.1-1.3c-0.7-0.8-1.4-1.7-2.1-2.6s-1.3-1.8-1.9-2.7c-0.7-0.9-1.2-1.9-1.8-2.8c-0.6-0.9-1.2-1.9-1.7-2.8c-0.5-1-1.1-1.9-1.6-2.9
				s-1-2-1.5-3c-0.4-1-0.9-2-1.4-3c-0.4-1-0.9-2-1.2-3.1c-0.8-2.1-1.5-4.2-2.1-6.3s-1.2-4.3-1.7-6.4c-0.2-1.1-0.5-2.2-0.7-3.2
				c-0.2-1.1-0.4-2.2-0.6-3.3L56.5,59l-0.4-3.3c-0.2-2.2-0.4-4.4-0.6-6.6c-0.1-1.1-0.1-2.2-0.2-3.3c-0.1-1.1-0.1-2.2-0.1-3.3
				c-0.1-2.2,0-4.4,0-6.7c0-0.6,0.4-1,1-1.1h0.1l0,0c0.4-0.1,0.9-0.2,1.3-0.3c0.5-0.1,0.9-0.2,1.4-0.3s0.9-0.2,1.4-0.4
				s0.9-0.3,1.3-0.4c0.4-0.2,0.9-0.3,1.3-0.5c0.4-0.2,0.9-0.4,1.3-0.6c0.4-0.2,0.8-0.4,1.2-0.7c0.4-0.2,0.8-0.5,1.2-0.7l0.6-0.4
				l0.6-0.4c0.4-0.3,0.7-0.6,1-0.9s0.6-0.7,1-1c0.3-0.4,0.6-0.7,0.8-1.1c0.3-0.4,0.5-0.8,0.7-1.2c0.2-0.4,0.4-0.9,0.6-1.3
				c0.1-0.2,0.2-0.4,0.3-0.7l0.2-0.7c0.2-0.5,0.2-1,0.4-1.4c0,0.5,0,1,0,1.5l-0.1,0.7c0,0.2-0.1,0.5-0.1,0.8c-0.1,0.5-0.2,1-0.4,1.5
				c-0.2,0.5-0.3,1-0.6,1.4c-0.2,0.5-0.5,0.9-0.7,1.4c-0.3,0.4-0.6,0.9-0.9,1.3c-0.2,0.2-0.3,0.4-0.5,0.6s-0.3,0.4-0.5,0.6l-0.6,0.6
				l-0.6,0.5c-0.4,0.3-0.8,0.7-1.2,1c-0.4,0.3-0.9,0.6-1.3,0.8c-0.4,0.3-0.9,0.5-1.4,0.7s-0.9,0.4-1.4,0.6c-1,0.4-1.9,0.7-2.9,0.9
				c-0.5,0.1-1,0.2-1.5,0.2c-0.2,0-0.4,0.1-0.6,0.1c-0.1,1.9-0.1,3.7-0.1,5.6c0,1.1,0,2.2,0,3.3s0,2.2,0.1,3.3
				c0.1,2.2,0.2,4.4,0.4,6.6l0.3,3.3l0.4,3.2c0.2,1.1,0.3,2.2,0.5,3.2c0.2,1.1,0.4,2.2,0.6,3.2c0.4,2.1,1,4.3,1.5,6.4
				c0.6,2.1,1.2,4.2,2,6.2c0.3,1,0.8,2,1.2,3.1c0.4,1,0.8,2,1.3,3c0.4,1,0.9,2,1.4,3l1.5,2.9c0.6,0.9,1.1,1.9,1.6,2.8
				c0.6,0.9,1.1,1.9,1.8,2.8c0.6,0.9,1.2,1.8,1.9,2.7c0.7,0.9,1.3,1.8,2,2.6l1,1.3l1.1,1.2c0.4,0.4,0.7,0.8,1.1,1.2l1.1,1.2
				c1.5,1.6,3.1,3.1,4.7,4.6c0.8,0.8,1.6,1.5,2.5,2.2c0.8,0.7,1.7,1.4,2.5,2.1c0.9,0.7,1.7,1.3,2.6,2l2.7,1.9L97.9,123.8l2.9,1.7
				L97.9,123.8z M150.3,70.4c-1,3.8-2.6,8.4-5.1,13.1c-0.8,1.5-2.1,2.6-3.7,3.2c-4,0.7-6.9,0.5-8.2-0.6c-0.6-0.5-0.9-1.2-0.9-2.2
				c0-0.7-0.3-1.2-0.8-1.7c-1.3-1.2-6.3-0.3-5.9-0.3c0,0,1,0,2,0.1c1.2,0.1,2.5,0.5,2.9,0.9c0.2,0.2,0.2,0.8,0.2,1.1
				c0,0.5,0.1,0.9,0.2,1.3c0.2,0.9-0.4,1.8-1.4,1.8H118c-6.5,0-12.8-2.4-17.5-6.9L96,76l8.5,20.1c0.5,1.2,0.8,2.6,0.8,3.9v21.4
				c0,1.3-1.4,2.1-2.5,1.4c-45-26-43.3-72.4-42.4-81.7c0.1-1,0.8-1.8,1.7-2.1c2.2-0.7,6.3-2.1,8.4-3.7c2.7-2,4.6-4.8,5.9-8.3
				c0.4-1.1,1.2-1.8,2.3-2.1c4-1,9.3-2,15.7-2.9c2.1-0.3,4.2-0.1,6.2,0.5c0.9,0.3,1.6,0.6,2.3,1c1.7,1,15.6,16.8,17.3,19.5
				c0.3,0.5,0.7,1.1,1,1.6c1.4,2.3,2.6,4.7,3.7,7.2c0.4,1,1.1,2.1,2.3,3.1c0,0-2.3-2.8-1.6-5.8c0.3,0,0.3,0,0.7-0.1
				c0.9,2,2.5,2.8,2.5,2.8c-1.9-2.1-1.9-4.1-1.7-5.2c1.5-2.3,2.5-4.9,2.9-7.6c0.1-0.6,0.9-0.7,1.1-0.1l0,0c1.3,3.5,1.7,8.7,1.1,13.5
				v0.1c0,0.1,0,0.2,0,0.3c-0.4,2.2-2.8,0.4-2.8,0.4c1.1,1,1.9,1.5,2.5,1.6c-0.1,0.4-0.1,0.8-0.2,1.2c0.2,2.3,3.9,4.2,3.9,4.2
				c-3.5-3.9-1.8-4.8-1.8-4.8c0.3-0.1,0.7-0.2,1-0.4c0.3-0.1,0.6,0.1,0.6,0.3c0.3,1.7,2.1,2.6,6.6,2.4c0,0-8.2-0.7-3-5.1l0,0
				c4.5-3.3,7.6-8.3,8.2-14.1c0.1-0.5,0.8-0.6,1-0.1c1.7,5.2,1.6,14.2-0.4,19.8c0,0-1.7,2.8-8.8,0.8c0,0,4.3,2.2,7.6,1.7
				c-0.4,0.7-0.9,1.3-1.5,1.7C144.9,62.5,152.2,63.4,150.3,70.4z"/>
		</g>
		<path class="st1" d="M169.4,77.7c0-0.1,0-0.1,0-0.2C169.5,77.6,169.5,77.6,169.4,77.7L169.4,77.7z"/>
		<path class="st1" d="M44.2,59c-0.3-2.2-0.5-4.4-0.6-6.5C43.8,54.6,44,56.8,44.2,59z"/>
		<path class="st1" d="M174,37.8c0.1,1.6,0.1,3.3,0.1,5.2C174.1,41.2,174,39.5,174,37.8z"/>
		<path class="st1" d="M179.8,43c0-0.3,0-0.5,0-0.7V42c0-0.9,0-1.9,0-2.8c0-0.1,0-0.2,0-0.3s0-0.1,0-0.2c0-0.1,0-0.2,0-0.3l0,0
			c0-0.1,0-0.1-0.1-0.2v-0.1c0-0.1,0-0.2,0-0.3v-0.2c0-0.2,0-0.3,0-0.4v-0.3c0-0.1,0-0.3,0-0.4l-0.1-0.9c0-0.1,0-0.3,0-0.4l-0.1-0.9
			c0-0.2,0-0.5-0.1-0.7l-0.1-1.2L179,29c0-0.2,0-0.3-0.1-0.5c-0.5-4.1-3.6-7.5-7.7-8.1c-8.5-1.4-9.1-3.2-9.9-7.3
			c-0.6-3.5-3.2-6-6.6-7C147.2,3.6,131,0,109,0l0,0h-0.1c-22,0-38.1,3.6-45.8,5.7c-3.4,1-6,3.6-6.6,7.1c-0.8,4.2-1.4,5.8-9.9,7.2
			c-4.1,0.7-7.3,4-7.7,8.1c0,0.2,0,0.3-0.1,0.5l-0.1,0.5L38.4,33c0,0.3,0,0.6-0.1,0.9V34c0,0.1,0,0.3,0,0.4l-0.1,1.8l0,0
			c0,0-0.2,5.6-0.2,9.4c0.2,14.4,2.6,28.1,7,40.7c3.5,10,8.9,19.5,16,28.2c5.6,6.9,12.3,13.2,19.9,18.9
			c12.9,9.7,24.1,14.2,24.5,14.4c1.1,0.4,2.3,0.7,3.5,0.7s2.4-0.2,3.5-0.7c0.5-0.2,11.6-4.7,24.5-14.4c7.6-5.7,14.3-12.1,19.9-18.9
			c7.1-8.7,12.5-18.2,16-28.2c3.7-10.5,5.9-21.8,6.7-33.5v-0.1c0-0.3,0-0.6,0.1-0.8l0,0c0-0.2,0-0.5,0-0.7v-0.1
			c0.1-1.9,0.2-3.7,0.2-5.6v-0.1c0-0.2,0-0.4,0-0.7v-0.1c0-0.2,0-0.4,0-0.7C179.9,43.7,179.9,43.4,179.8,43z M47.9,77.6L47.9,77.6
			L47.9,77.6L47.9,77.6z M174.1,45.9c0,0.1,0,0.2,0,0.4c0,0.9-0.1,1.8-0.1,2.8c0,0.1,0,0.2,0,0.4c0,1-0.1,1.9-0.2,2.9
			c0,0.1,0,0.2,0,0.2c-0.1,2.1-0.4,4.3-0.6,6.5c0,0.1,0,0.1,0,0.2c-0.1,1.1-0.3,2.2-0.4,3.3c0,0.1,0,0.2-0.1,0.4
			c-0.2,1.1-0.3,2.2-0.5,3.3c0,0.1-0.1,0.3-0.1,0.4c-0.2,1.1-0.4,2.2-0.7,3.4c0,0.1,0,0.2-0.1,0.3c-0.5,2.4-1.1,4.8-1.8,7.2
			c0,0.1,0,0.1,0,0.2l0,0c-0.6,2.2-1.3,4.5-2.1,6.8c-3.3,9.4-8.3,18.3-15,26.5c-5.3,6.5-11.7,12.6-18.9,18
			c-12.3,9.3-22.8,13.5-23.3,13.7c-0.4,0.2-0.8,0.2-1.3,0.3c-0.4,0-0.9-0.1-1.3-0.3s-10.9-4.5-23.2-13.7c-7.2-5.4-13.6-11.5-18.9-18
			c-6.7-8.2-11.8-17.1-15-26.5c-0.8-2.2-1.5-4.4-2.1-6.6c-3.3-11.8-4.5-23-4.7-32.3l0,0c-0.1-0.6,0-5.4,0.1-7.3l0,0
			c0-0.2,0-0.3,0-0.5c0-0.1,0-0.1,0-0.2v-0.1l0,0l0,0c0-0.1,0-0.2,0-0.3s0-0.1,0-0.2c0-0.2,0-0.3,0-0.4c0-0.1,0-0.1,0-0.2
			c0-0.1,0-0.3,0-0.4c0-0.1,0-0.1,0-0.2c0-0.1,0-0.3,0-0.4c0-0.1,0-0.1,0-0.2c0-0.1,0-0.3,0-0.4v-0.1c0-0.3,0-0.6,0.1-0.9
			c0-0.1,0-0.1,0-0.2c0-0.1,0-0.2,0-0.3s0-0.2,0-0.3s0-0.2,0-0.3s0-0.2,0-0.3s0-0.2,0-0.3s0-0.2,0-0.3c0-0.1,0-0.2,0-0.3
			c0-0.1,0-0.2,0-0.3c0-0.1,0-0.2,0-0.3c0-0.1,0-0.2,0-0.3c0-0.1,0-0.2,0-0.2c0-0.1,0-0.2,0-0.3c0-0.1,0-0.1,0-0.2s0-0.2,0-0.3
			c0-0.1,0-0.1,0-0.2c0-0.2,0-0.3,0.1-0.5c0.2-1.7,1.5-3,3.1-3.3c9.7-1.6,13.1-4.4,14.5-11.8c0.3-1.4,1.3-2.5,2.7-2.9
			c7.8-2.3,23.6-5,44.6-6l0,0c17.7,0.8,31.6,2.9,40.1,4.8c1.5,0.4,2.8,0.7,3.9,1c1.4,0.4,2.4,1.5,2.7,2.9
			c1.4,7.4,4.8,10.2,14.5,11.8c1.7,0.3,2.9,1.6,3.1,3.3c0.1,0.6,0.1,1.2,0.2,1.8c0,0.1,0,0.2,0,0.2c0.1,0.6,0.1,1.2,0.2,1.9
			c0,0.1,0,0.2,0,0.3c0.1,0.7,0.1,1.3,0.1,2c0,0.1,0,0.2,0,0.3c0,0.7,0.1,1.5,0.1,2.2c0,0.1,0,0.2,0,0.2c0.1,1.6,0.1,3.3,0.1,5.2
			c0,0.1,0,0.2,0,0.2C174.1,44.1,174.1,45,174.1,45.9z"/>
		<path class="st0" d="M139.1,76.1c-0.8,0.2-1.5,0.6-2,1c-0.4,0.3-0.1,0.9,0.4,0.8l0,0c1.3-0.3,2.7,0.4,2.9,1.6c0,0.1,0,0.2,0.1,0.3
			c0,0.3,0.4,0.5,0.6,0.4c1.3-0.6,2.1-1.7,1.9-2.7C142.8,76.2,141,75.6,139.1,76.1z"/>
		<path class="st1" d="M43.7,37.4L43.7,37.4L43.7,37.4z"/>
	</g>
</g>
</svg>
